<svg width="26" height="26" viewBox="0 0 26 26" fill="none" xmlns="http://www.w3.org/2000/svg">
<g clip-path="url(#clip0_2102_273)">
<path opacity="0.4" d="M25.5 13.006C25.5 19.8922 19.8895 25.5 13 25.5C6.11052 25.5 0.5 19.8922 0.5 13.006C0.5 6.10782 6.11052 0.5 13 0.5C19.8895 0.5 25.5 6.10782 25.5 13.006Z" fill="url(#paint0_linear_2102_273)"/>
<path d="M18 13.0061C18 13.322 17.9006 13.6391 17.7017 13.8931C17.6644 13.9429 17.4904 14.1482 17.3537 14.2819L17.2791 14.3548C16.2351 15.4617 13.6374 17.1264 12.32 17.6598C12.32 17.6719 11.5369 17.9891 11.1641 18H11.1143C10.5426 18 10.0082 17.6853 9.73473 17.175C9.58558 16.8943 9.44886 16.0802 9.43643 16.0693C9.32457 15.339 9.25 14.2211 9.25 12.9939C9.25 11.7072 9.32457 10.5395 9.46129 9.8226C9.46129 9.81045 9.59801 9.15431 9.68501 8.9356C9.82173 8.6209 10.0703 8.35237 10.381 8.18226C10.6296 8.06197 10.8906 8 11.1641 8C11.4499 8.01337 11.9844 8.19441 12.1957 8.27947C13.5877 8.81409 16.2475 10.5638 17.2667 11.633C17.4407 11.8032 17.6271 12.0109 17.6768 12.0583C17.8881 12.3256 18 12.6537 18 13.0061Z" fill="url(#paint1_linear_2102_273)"/>
</g>
<defs>
<linearGradient id="paint0_linear_2102_273" x1="25.5" y1="25.5" x2="-1.55618" y2="2.96916" gradientUnits="userSpaceOnUse">
<stop stop-color="#FD7600"/>
<stop offset="1" stop-color="#E5A702"/>
</linearGradient>
<linearGradient id="paint1_linear_2102_273" x1="18" y1="18" x2="7.525" y2="10.3674" gradientUnits="userSpaceOnUse">
<stop stop-color="#FD7500"/>
<stop offset="1" stop-color="#E5A302"/>
</linearGradient>
<clipPath id="clip0_2102_273">
<rect width="26" height="26" fill="white"/>
</clipPath>
</defs>
</svg>
